<svg width="380" height="609" viewBox="0 0 380 609" fill="none" xmlns="http://www.w3.org/2000/svg">
<path d="M13.6183 6.84729C13.6183 10.4651 10.414 13.6694 6.79624 13.6694C3.17847 13.6694 0 10.4392 0 6.84729C0 3.25536 3.20431 0.0252056 6.82208 0.0252056C10.414 0.0252056 13.6183 2.8419 13.6183 6.84729Z" fill="#0F766E"/>
<path d="M67.704 13.6442C71.3218 13.6442 74.5261 10.4399 74.5261 6.82208C74.5261 3.23015 71.3218 0.0258427 67.704 0.0258427C64.0862 0.0258427 60.8819 3.23015 60.8819 6.84792C60.9077 10.4399 64.1121 13.6442 67.704 13.6442Z" fill="#0F766E"/>
<path d="M128.612 13.6442C132.23 13.6442 135.434 10.4399 135.434 6.82208C135.434 3.20431 132.23 0 128.612 0C124.994 0 121.79 3.20431 121.79 6.82208C121.79 10.4399 124.994 13.6442 128.612 13.6442Z" fill="#0F766E"/>
<path d="M189.494 13.6442C193.111 13.6442 196.316 10.4399 196.316 6.82208C196.316 3.20431 193.111 0 189.494 0C185.876 0 182.672 3.20431 182.672 6.82208C182.672 10.4399 185.902 13.6442 189.494 13.6442Z" fill="#0F766E"/>
<path d="M250.401 13.6442C254.019 13.6442 257.224 10.4399 257.224 6.82208C257.224 3.23015 254.019 0.0258427 250.401 0.0258427C246.784 0.0258427 243.579 3.23015 243.579 6.84792C243.579 10.4657 246.784 13.6442 250.401 13.6442Z" fill="#0F766E"/>
<path d="M311.309 13.6442C314.927 13.6442 318.131 10.4399 318.131 6.82208C318.131 3.20431 314.927 0 311.309 0C307.691 0 304.487 3.20431 304.487 6.82208C304.487 10.4399 307.691 13.6442 311.309 13.6442Z" fill="#0F766E"/>
<path d="M372.191 13.6442C375.809 13.6442 379.013 10.4399 379.013 6.82208C379.013 3.20431 375.809 0 372.191 0C368.573 0 365.369 3.20431 365.369 6.82208C365.369 10.4399 368.599 13.6442 372.191 13.6442Z" fill="#0F766E"/>
<path d="M13.6183 60.9336C13.6183 64.5514 10.414 67.7557 6.79624 67.7557C3.17847 67.7557 0 64.5255 0 60.9336C0 57.3417 3.20431 54.1115 6.82208 54.1115C10.414 54.1115 13.6183 57.3158 13.6183 60.9336Z" fill="#0F766E"/>
<path d="M67.704 67.7298C71.3218 67.7298 74.5261 64.5255 74.5261 60.9078C74.5261 57.29 71.3218 54.0857 67.704 54.0857C64.0862 54.0857 60.8819 57.29 60.8819 60.9078C60.8819 64.5255 64.1121 67.7298 67.704 67.7298Z" fill="#0F766E"/>
<path d="M128.612 67.7298C132.23 67.7298 135.434 64.5255 135.434 60.9078C135.434 57.29 132.23 54.0857 128.612 54.0857C124.994 54.0857 121.79 57.29 121.79 60.9078C121.79 64.5255 124.994 67.7298 128.612 67.7298Z" fill="#0F766E"/>
<path d="M189.494 67.7298C193.111 67.7298 196.316 64.5255 196.316 60.9078C196.316 57.29 193.111 54.0857 189.494 54.0857C185.876 54.0857 182.672 57.29 182.672 60.9078C182.672 64.5255 185.902 67.7298 189.494 67.7298Z" fill="#0F766E"/>
<path d="M250.401 67.7298C254.019 67.7298 257.224 64.5255 257.224 60.9078C257.224 57.29 254.019 54.0857 250.401 54.0857C246.784 54.0857 243.579 57.29 243.579 60.9078C243.579 64.5255 246.784 67.7298 250.401 67.7298Z" fill="#0F766E"/>
<path d="M311.309 67.7298C314.927 67.7298 318.131 64.5255 318.131 60.9078C318.131 57.29 314.927 54.0857 311.309 54.0857C307.691 54.0857 304.487 57.29 304.487 60.9078C304.487 64.5255 307.691 67.7298 311.309 67.7298Z" fill="#0F766E"/>
<path d="M372.191 67.7298C375.809 67.7298 379.013 64.5255 379.013 60.9078C379.013 57.29 375.809 54.0857 372.191 54.0857C368.573 54.0857 365.369 57.29 365.369 60.9078C365.369 64.5255 368.599 67.7298 372.191 67.7298Z" fill="#0F766E"/>
<path d="M13.6183 115.019C13.6183 118.637 10.414 121.841 6.79624 121.841C3.17847 121.841 0 118.611 0 115.019C0 111.401 3.20431 108.197 6.82208 108.197C10.414 108.197 13.6183 111.401 13.6183 115.019Z" fill="#0F766E"/>
<path d="M67.704 121.816C71.3218 121.816 74.5261 118.611 74.5261 114.993C74.5261 111.376 71.3218 108.171 67.704 108.171C64.0862 108.171 60.8819 111.376 60.8819 114.993C60.9077 118.611 64.1121 121.816 67.704 121.816Z" fill="#0F766E"/>
<path d="M128.612 121.816C132.23 121.816 135.434 118.611 135.434 114.993C135.434 111.376 132.23 108.171 128.612 108.171C124.994 108.171 121.79 111.376 121.79 114.993C121.79 118.611 124.994 121.816 128.612 121.816Z" fill="#0F766E"/>
<path d="M189.494 121.816C193.111 121.816 196.316 118.611 196.316 114.993C196.316 111.376 193.111 108.171 189.494 108.171C185.876 108.171 182.672 111.376 182.672 114.993C182.697 118.611 185.902 121.816 189.494 121.816Z" fill="#0F766E"/>
<path d="M250.401 121.816C254.019 121.816 257.224 118.611 257.224 114.993C257.224 111.376 254.019 108.171 250.401 108.171C246.784 108.171 243.579 111.376 243.579 114.993C243.579 118.611 246.784 121.816 250.401 121.816Z" fill="#0F766E"/>
<path d="M311.309 121.816C314.927 121.816 318.131 118.611 318.131 114.993C318.131 111.376 314.927 108.171 311.309 108.171C307.691 108.171 304.487 111.376 304.487 114.993C304.487 118.611 307.691 121.816 311.309 121.816Z" fill="#0F766E"/>
<path d="M372.191 121.816C375.809 121.816 379.013 118.611 379.013 114.993C379.013 111.376 375.809 108.171 372.191 108.171C368.573 108.171 365.369 111.376 365.369 114.993C365.395 118.611 368.599 121.816 372.191 121.816Z" fill="#0F766E"/>
<path d="M13.6183 169.105C13.6183 172.723 10.414 175.927 6.79624 175.927C3.17847 175.927 0 172.697 0 169.105C0 165.487 3.20431 162.283 6.82208 162.283C10.414 162.283 13.6183 165.487 13.6183 169.105Z" fill="#0F766E"/>
<path d="M74.5261 169.105C74.5261 172.723 71.3218 175.927 67.704 175.927C64.0862 175.927 60.8819 172.723 60.8819 169.105C60.8819 165.487 64.0862 162.283 67.704 162.283C71.3218 162.283 74.5261 165.487 74.5261 169.105Z" fill="#0F766E"/>
<path d="M135.408 169.105C135.408 172.723 132.204 175.927 128.586 175.927C124.968 175.927 121.764 172.723 121.764 169.105C121.764 165.487 124.968 162.283 128.586 162.283C132.204 162.283 135.408 165.487 135.408 169.105Z" fill="#0F766E"/>
<path d="M196.316 169.105C196.316 172.723 193.111 175.927 189.494 175.927C185.876 175.927 182.672 172.723 182.672 169.105C182.672 165.487 185.876 162.283 189.494 162.283C193.111 162.283 196.316 165.487 196.316 169.105Z" fill="#0F766E"/>
<path d="M257.224 169.105C257.224 172.723 254.019 175.927 250.401 175.927C246.784 175.927 243.579 172.723 243.579 169.105C243.579 165.487 246.784 162.283 250.401 162.283C254.019 162.283 257.224 165.487 257.224 169.105Z" fill="#0F766E"/>
<path d="M318.105 169.105C318.105 172.723 314.901 175.927 311.283 175.927C307.666 175.927 304.461 172.723 304.461 169.105C304.461 165.487 307.666 162.283 311.283 162.283C314.901 162.283 318.105 165.487 318.105 169.105Z" fill="#0F766E"/>
<path d="M379.013 169.105C379.013 172.723 375.809 175.927 372.191 175.927C368.573 175.927 365.369 172.723 365.369 169.105C365.369 165.487 368.573 162.283 372.191 162.283C375.809 162.283 379.013 165.487 379.013 169.105Z" fill="#0F766E"/>
<path d="M13.6183 223.191C13.6183 226.808 10.414 230.013 6.79624 230.013C3.17847 230.013 0 226.783 0 223.191C0 219.573 3.20431 216.369 6.82208 216.369C10.414 216.369 13.6183 219.573 13.6183 223.191Z" fill="#0F766E"/>
<path d="M74.5261 223.191C74.5261 226.808 71.3218 230.013 67.704 230.013C64.0862 230.013 60.8819 226.808 60.8819 223.191C60.8819 219.573 64.0862 216.369 67.704 216.369C71.3218 216.369 74.5261 219.573 74.5261 223.191Z" fill="#0F766E"/>
<path d="M135.408 223.191C135.408 226.808 132.204 230.013 128.586 230.013C124.968 230.013 121.764 226.808 121.764 223.191C121.764 219.573 124.968 216.369 128.586 216.369C132.204 216.369 135.408 219.573 135.408 223.191Z" fill="#0F766E"/>
<path d="M196.316 223.191C196.316 226.808 193.111 230.013 189.494 230.013C185.876 230.013 182.672 226.808 182.672 223.191C182.672 219.573 185.876 216.369 189.494 216.369C193.111 216.369 196.316 219.573 196.316 223.191Z" fill="#0F766E"/>
<path d="M257.224 223.191C257.224 226.808 254.019 230.013 250.401 230.013C246.784 230.013 243.579 226.808 243.579 223.191C243.579 219.573 246.784 216.369 250.401 216.369C254.019 216.369 257.224 219.573 257.224 223.191Z" fill="#0F766E"/>
<path d="M318.105 223.191C318.105 226.808 314.901 230.013 311.283 230.013C307.666 230.013 304.461 226.808 304.461 223.191C304.461 219.573 307.666 216.369 311.283 216.369C314.901 216.369 318.105 219.573 318.105 223.191Z" fill="#0F766E"/>
<path d="M379.013 223.191C379.013 226.808 375.809 230.013 372.191 230.013C368.573 230.013 365.369 226.808 365.369 223.191C365.369 219.573 368.573 216.369 372.191 216.369C375.809 216.369 379.013 219.573 379.013 223.191Z" fill="#0F766E"/>
<path d="M13.6183 277.276C13.6183 280.894 10.414 284.098 6.79624 284.098C3.17847 284.098 0 280.868 0 277.276C0 273.684 3.20431 270.454 6.82208 270.454C10.414 270.454 13.6183 273.659 13.6183 277.276Z" fill="#0F766E"/>
<path d="M74.5261 277.276C74.5261 280.894 71.3218 284.098 67.704 284.098C64.0862 284.098 60.8819 280.894 60.8819 277.276C60.8819 273.659 64.0862 270.454 67.704 270.454C71.3218 270.454 74.5261 273.659 74.5261 277.276Z" fill="#0F766E"/>
<path d="M135.408 277.276C135.408 280.894 132.204 284.098 128.586 284.098C124.968 284.098 121.764 280.894 121.764 277.276C121.764 273.659 124.968 270.454 128.586 270.454C132.204 270.454 135.408 273.659 135.408 277.276Z" fill="#0F766E"/>
<path d="M196.316 277.276C196.316 280.894 193.111 284.098 189.494 284.098C185.876 284.098 182.672 280.894 182.672 277.276C182.672 273.659 185.876 270.454 189.494 270.454C193.111 270.454 196.316 273.659 196.316 277.276Z" fill="#0F766E"/>
<path d="M257.224 277.276C257.224 280.894 254.019 284.098 250.401 284.098C246.784 284.098 243.579 280.894 243.579 277.276C243.579 273.659 246.784 270.454 250.401 270.454C254.019 270.454 257.224 273.659 257.224 277.276Z" fill="#0F766E"/>
<path d="M318.105 277.276C318.105 280.894 314.901 284.098 311.283 284.098C307.666 284.098 304.461 280.894 304.461 277.276C304.461 273.659 307.666 270.454 311.283 270.454C314.901 270.454 318.105 273.659 318.105 277.276Z" fill="#0F766E"/>
<path d="M379.013 277.276C379.013 280.894 375.809 284.098 372.191 284.098C368.573 284.098 365.369 280.894 365.369 277.276C365.369 273.659 368.573 270.454 372.191 270.454C375.809 270.454 379.013 273.659 379.013 277.276Z" fill="#0F766E"/>
<path d="M13.6183 331.362C13.6183 334.98 10.414 338.184 6.79624 338.184C3.17847 338.184 0 334.954 0 331.362C0 327.744 3.20431 324.54 6.82208 324.54C10.414 324.953 13.6183 327.744 13.6183 331.362Z" fill="#0F766E"/>
<path d="M67.704 338.158C71.3218 338.158 74.5261 334.954 74.5261 331.336C74.5261 327.718 71.3218 324.514 67.704 324.514C64.0862 324.514 60.8819 327.718 60.8819 331.336C60.9077 334.954 64.1121 338.158 67.704 338.158Z" fill="#0F766E"/>
<path d="M128.612 338.158C132.23 338.158 135.434 334.954 135.434 331.336C135.434 327.718 132.23 324.514 128.612 324.514C124.994 324.514 121.79 327.718 121.79 331.336C121.79 334.954 124.994 338.158 128.612 338.158Z" fill="#0F766E"/>
<path d="M189.494 338.158C193.111 338.158 196.316 334.954 196.316 331.336C196.316 327.718 193.111 324.514 189.494 324.514C185.876 324.514 182.672 327.718 182.672 331.336C182.697 334.954 185.902 338.158 189.494 338.158Z" fill="#0F766E"/>
<path d="M250.401 338.158C254.019 338.158 257.224 334.954 257.224 331.336C257.224 327.718 254.019 324.514 250.401 324.514C246.784 324.514 243.579 327.718 243.579 331.336C243.579 334.954 246.784 338.158 250.401 338.158Z" fill="#0F766E"/>
<path d="M311.309 338.158C314.927 338.158 318.131 334.954 318.131 331.336C318.131 327.718 314.927 324.514 311.309 324.514C307.691 324.514 304.487 327.718 304.487 331.336C304.487 334.954 307.691 338.158 311.309 338.158Z" fill="#0F766E"/>
<path d="M372.191 338.158C375.809 338.158 379.013 334.954 379.013 331.336C379.013 327.718 375.809 324.514 372.191 324.514C368.573 324.514 365.369 327.718 365.369 331.336C365.395 334.954 368.599 338.158 372.191 338.158Z" fill="#0F766E"/>
<path d="M13.6183 385.835C13.6183 389.453 10.414 392.657 6.79624 392.657C3.17847 392.657 0 389.453 0 385.835C0 382.217 3.20431 379.013 6.82208 379.013C10.414 379.039 13.6183 381.83 13.6183 385.835Z" fill="#0F766E"/>
<path d="M74.5261 385.835C74.5261 389.453 71.3218 392.657 67.704 392.657C64.0862 392.657 60.8819 389.453 60.8819 385.835C60.8819 382.217 64.0862 379.013 67.704 379.013C71.3218 379.039 74.5261 381.83 74.5261 385.835Z" fill="#0F766E"/>
<path d="M135.408 385.835C135.408 389.453 132.204 392.657 128.586 392.657C124.968 392.657 121.764 389.453 121.764 385.835C121.764 382.217 124.968 379.013 128.586 379.013C132.204 379.013 135.408 381.83 135.408 385.835Z" fill="#0F766E"/>
<path d="M196.316 385.835C196.316 389.453 193.111 392.657 189.494 392.657C185.876 392.657 182.672 389.453 182.672 385.835C182.672 382.217 185.876 379.013 189.494 379.013C193.111 379.039 196.316 381.83 196.316 385.835Z" fill="#0F766E"/>
<path d="M257.224 385.835C257.224 389.453 254.019 392.657 250.401 392.657C246.784 392.657 243.579 389.453 243.579 385.835C243.579 382.217 246.784 379.013 250.401 379.013C254.019 379.013 257.224 381.83 257.224 385.835Z" fill="#0F766E"/>
<path d="M318.105 385.835C318.105 389.453 314.901 392.657 311.283 392.657C307.666 392.657 304.461 389.453 304.461 385.835C304.461 382.217 307.666 379.013 311.283 379.013C314.901 379.013 318.105 381.83 318.105 385.835Z" fill="#0F766E"/>
<path d="M379.013 385.835C379.013 389.453 375.809 392.657 372.191 392.657C368.573 392.657 365.369 389.453 365.369 385.835C365.369 382.217 368.573 379.013 372.191 379.013C375.809 379.039 379.013 381.83 379.013 385.835Z" fill="#0F766E"/>
<path d="M13.6183 439.921C13.6183 443.539 10.414 446.743 6.79624 446.743C3.17847 446.743 0 443.539 0 439.921C0 436.303 3.20431 433.099 6.82208 433.099C10.414 433.125 13.6183 435.916 13.6183 439.921Z" fill="#0F766E"/>
<path d="M74.5261 439.921C74.5261 443.539 71.3218 446.743 67.704 446.743C64.0862 446.743 60.8819 443.539 60.8819 439.921C60.8819 436.303 64.0862 433.099 67.704 433.099C71.3218 433.125 74.5261 435.916 74.5261 439.921Z" fill="#0F766E"/>
<path d="M135.408 439.921C135.408 443.539 132.204 446.743 128.586 446.743C124.968 446.743 121.764 443.539 121.764 439.921C121.764 436.303 124.968 433.099 128.586 433.099C132.204 433.099 135.408 435.916 135.408 439.921Z" fill="#0F766E"/>
<path d="M196.316 439.921C196.316 443.539 193.111 446.743 189.494 446.743C185.876 446.743 182.672 443.539 182.672 439.921C182.672 436.303 185.876 433.099 189.494 433.099C193.111 433.125 196.316 435.916 196.316 439.921Z" fill="#0F766E"/>
<path d="M257.224 439.921C257.224 443.539 254.019 446.743 250.401 446.743C246.784 446.743 243.579 443.539 243.579 439.921C243.579 436.303 246.784 433.099 250.401 433.099C254.019 433.099 257.224 435.916 257.224 439.921Z" fill="#0F766E"/>
<path d="M318.105 439.921C318.105 443.539 314.901 446.743 311.283 446.743C307.666 446.743 304.461 443.539 304.461 439.921C304.461 436.303 307.666 433.099 311.283 433.099C314.901 433.099 318.105 435.916 318.105 439.921Z" fill="#0F766E"/>
<path d="M379.013 439.921C379.013 443.539 375.809 446.743 372.191 446.743C368.573 446.743 365.369 443.539 365.369 439.921C365.369 436.303 368.573 433.099 372.191 433.099C375.809 433.125 379.013 435.916 379.013 439.921Z" fill="#0F766E"/>
<path d="M13.6183 494.007C13.6183 497.624 10.414 500.829 6.79624 500.829C3.17847 500.829 0 497.624 0 494.007C0 490.389 3.20431 487.185 6.82208 487.185C10.414 487.21 13.6183 490.415 13.6183 494.007Z" fill="#0F766E"/>
<path d="M74.5261 494.007C74.5261 497.624 71.3218 500.829 67.704 500.829C64.0862 500.829 60.8819 497.624 60.8819 494.007C60.8819 490.389 64.0862 487.185 67.704 487.185C71.3218 487.21 74.5261 490.415 74.5261 494.007Z" fill="#0F766E"/>
<path d="M135.408 494.007C135.408 497.624 132.204 500.829 128.586 500.829C124.968 500.829 121.764 497.624 121.764 494.007C121.764 490.389 124.968 487.185 128.586 487.185C132.204 487.185 135.408 490.415 135.408 494.007Z" fill="#0F766E"/>
<path d="M196.316 494.007C196.316 497.624 193.111 500.829 189.494 500.829C185.876 500.829 182.672 497.624 182.672 494.007C182.672 490.389 185.876 487.185 189.494 487.185C193.111 487.21 196.316 490.415 196.316 494.007Z" fill="#0F766E"/>
<path d="M257.224 494.007C257.224 497.624 254.019 500.829 250.401 500.829C246.784 500.829 243.579 497.624 243.579 494.007C243.579 490.389 246.784 487.185 250.401 487.185C254.019 487.185 257.224 490.415 257.224 494.007Z" fill="#0F766E"/>
<path d="M318.105 494.007C318.105 497.624 314.901 500.829 311.283 500.829C307.666 500.829 304.461 497.624 304.461 494.007C304.461 490.389 307.666 487.185 311.283 487.185C314.901 487.185 318.105 490.415 318.105 494.007Z" fill="#0F766E"/>
<path d="M379.013 494.007C379.013 497.624 375.809 500.829 372.191 500.829C368.573 500.829 365.369 497.624 365.369 494.007C365.369 490.389 368.573 487.185 372.191 487.185C375.809 487.21 379.013 490.415 379.013 494.007Z" fill="#0F766E"/>
<path d="M13.6183 548.092C13.6183 551.71 10.414 554.914 6.79624 554.914C3.17847 554.914 0 551.71 0 548.092C0 544.474 3.20431 541.27 6.82208 541.27C10.414 541.296 13.6183 544.5 13.6183 548.092Z" fill="#0F766E"/>
<path d="M67.704 554.914C71.3218 554.914 74.5261 551.71 74.5261 548.092C74.5261 544.474 71.3218 541.27 67.704 541.27C64.0862 541.27 60.8819 544.474 60.8819 548.092C60.9077 551.71 64.1121 554.914 67.704 554.914Z" fill="#0F766E"/>
<path d="M128.612 554.914C132.23 554.914 135.434 551.71 135.434 548.092C135.434 544.474 132.23 541.27 128.612 541.27C124.994 541.27 121.79 544.474 121.79 548.092C121.79 551.71 124.994 554.914 128.612 554.914Z" fill="#0F766E"/>
<path d="M189.494 554.914C193.111 554.914 196.316 551.71 196.316 548.092C196.316 544.474 193.111 541.27 189.494 541.27C185.876 541.27 182.672 544.474 182.672 548.092C182.697 551.71 185.902 554.914 189.494 554.914Z" fill="#0F766E"/>
<path d="M250.401 554.914C254.019 554.914 257.224 551.71 257.224 548.092C257.224 544.474 254.019 541.27 250.401 541.27C246.784 541.27 243.579 544.474 243.579 548.092C243.579 551.71 246.784 554.914 250.401 554.914Z" fill="#0F766E"/>
<path d="M311.309 554.914C314.927 554.914 318.131 551.71 318.131 548.092C318.131 544.474 314.927 541.27 311.309 541.27C307.691 541.27 304.487 544.474 304.487 548.092C304.487 551.71 307.691 554.914 311.309 554.914Z" fill="#0F766E"/>
<path d="M372.191 554.914C375.809 554.914 379.013 551.71 379.013 548.092C379.013 544.474 375.809 541.27 372.191 541.27C368.573 541.27 365.369 544.474 365.369 548.092C365.395 551.71 368.599 554.914 372.191 554.914Z" fill="#0F766E"/>
<path d="M13.6183 602.178C13.6183 605.796 10.414 609 6.79624 609C3.17847 609 0 605.796 0 602.178C0 598.56 3.20431 595.356 6.82208 595.356C10.414 595.382 13.6183 598.586 13.6183 602.178Z" fill="#0F766E"/>
<path d="M74.5261 602.178C74.5261 605.796 71.3218 609 67.704 609C64.0862 609 60.8819 605.796 60.8819 602.178C60.8819 598.56 64.0862 595.356 67.704 595.356C71.3218 595.382 74.5261 598.586 74.5261 602.178Z" fill="#0F766E"/>
<path d="M135.408 602.178C135.408 605.796 132.204 609 128.586 609C124.968 609 121.764 605.796 121.764 602.178C121.764 598.56 124.968 595.356 128.586 595.356C132.204 595.356 135.408 598.586 135.408 602.178Z" fill="#0F766E"/>
<path d="M196.316 602.178C196.316 605.796 193.111 609 189.494 609C185.876 609 182.672 605.796 182.672 602.178C182.672 598.56 185.876 595.356 189.494 595.356C193.111 595.382 196.316 598.586 196.316 602.178Z" fill="#0F766E"/>
<path d="M257.224 602.178C257.224 605.796 254.019 609 250.401 609C246.784 609 243.579 605.796 243.579 602.178C243.579 598.56 246.784 595.356 250.401 595.356C254.019 595.356 257.224 598.586 257.224 602.178Z" fill="#0F766E"/>
<path d="M318.105 602.178C318.105 605.796 314.901 609 311.283 609C307.666 609 304.461 605.796 304.461 602.178C304.461 598.56 307.666 595.356 311.283 595.356C314.901 595.356 318.105 598.586 318.105 602.178Z" fill="#0F766E"/>
<path d="M379.013 602.178C379.013 605.796 375.809 609 372.191 609C368.573 609 365.369 605.796 365.369 602.178C365.369 598.56 368.573 595.356 372.191 595.356C375.809 595.382 379.013 598.586 379.013 602.178Z" fill="#0F766E"/>
</svg>
