# Exported from Wings 3D 2.2.6.1
mtllib dodeca.mtl
o dodecahedron1
#20 vertices, 12 faces
v -0.50000000 0.0000000e+0 1.30901699
v 0.50000000 0.0000000e+0 1.30901699
v -0.80901699 -0.80901699 -0.80901699
v -0.80901699 -0.80901699 0.80901699
v -0.80901699 0.80901699 -0.80901699
v -0.80901699 0.80901699 0.80901699
v 0.80901699 -0.80901699 -0.80901699
v 0.80901699 -0.80901699 0.80901699
v 0.80901699 0.80901699 -0.80901699
v 0.80901699 0.80901699 0.80901699
v 1.30901699 0.50000000 0.0000000e+0
v 1.30901699 -0.50000000 0.0000000e+0
v -1.30901699 0.50000000 0.0000000e+0
v -1.30901699 -0.50000000 0.0000000e+0
v -0.50000000 0.0000000e+0 -1.30901699
v 0.50000000 0.0000000e+0 -1.30901699
v 0.0000000e+0 1.30901699 0.50000000
v 0.0000000e+0 1.30901699 -0.50000000
v 0.0000000e+0 -1.30901699 0.50000000
v 0.0000000e+0 -1.30901699 -0.50000000
vt 0.0000000e+0 0.58778525
vt 0.19098301 0.0000000e+0
vt 0.50000000 0.95105652
vt 0.80901699 0.0000000e+0
vt 1.00000000 0.58778525
vn -0.35682209 0.0000000e+0 0.93417236
vn 0.35682209 0.0000000e+0 0.93417236
vn -0.57735027 -0.57735027 0.57735027
vn -0.57735027 0.57735027 -0.57735027
vn -0.57735027 0.57735027 0.57735027
vn 0.57735027 -0.57735027 0.57735027
vn 0.57735027 0.57735027 -0.57735027
vn 0.57735027 0.57735027 0.57735027
vn 0.93417236 0.35682209 0.0000000e+0
vn 0.93417236 -0.35682209 0.0000000e+0
vn -0.93417236 0.35682209 0.0000000e+0
vn -0.93417236 -0.35682209 0.0000000e+0
vn 0.0000000e+0 0.93417236 0.35682209
vn 0.0000000e+0 0.93417236 -0.35682209
vn 0.0000000e+0 -0.93417236 0.35682209
vn 0.0000000e+0 -0.52573111 -0.85065081
vn -0.80901699 -0.50000000 -0.30901699
vn -0.80901699 -0.50000000 -0.30901699
vn 0.80901699 -0.50000000 -0.30901699
vn 0.0000000e+0 -0.52573111 -0.85065081
vn 0.80901699 -0.50000000 -0.30901699
vn 0.0000000e+0 -0.52573111 -0.85065081
vn -0.50000000 0.30901699 -0.80901699
vn -0.50000000 0.30901699 -0.80901699
vn 0.0000000e+0 -0.52573111 -0.85065081
vn 0.50000000 0.30901699 -0.80901699
vn 0.50000000 0.30901699 -0.80901699
vn 0.0000000e+0 -1.00000000 0.0000000e+0
vn 0.0000000e+0 -0.52573111 -0.85065081
vn 0.0000000e+0 -1.00000000 0.0000000e+0
g dodecahedron1
usemtl default
s 1
f 15//22 16//25 7//20 20//29 3//16
s 2
f 1//1 4//3 19//15 8//6 2//2
f 1//1 6//5 13//11 14//12 4//3
f 3//18 20//30 19//15 4//3 14//12
f 5//4 18//14 9//7 16//27 15//24
f 7//21 16//26 9//7 11//9 12//10
f 8//6 12//10 11//9 10//8 2//2
f 9//7 18//14 17//13 10//8 11//9
f 12//10 8//6 19//15 20//28 7//19
f 13//11 6//5 17//13 18//14 5//4
f 14//12 13//11 5//4 15//23 3//17
usemtl dodecahedron1_auv
s 2
f 2/4/2 10/5/8 17/3/13 6/1/5 1/2/1
