# Blender v2.75 (sub 0) OBJ File: '403_obj.blend'
# www.blender.org
mtllib 403_plaque_ar.mtl
o Plaques_Plane.003
v 2.009530 0.581406 -5.628417
v 2.009530 0.576297 -5.623308
v 2.014639 0.581406 -5.623308
v 2.009530 0.577793 -5.626920
v 2.013143 0.577793 -5.623308
v 2.013143 0.581406 -5.626920
v 2.012850 0.578085 -5.626628
v 2.014639 0.581406 -5.276310
v 2.009530 0.576297 -5.276310
v 2.009530 0.581406 -5.271202
v 2.013143 0.577793 -5.276310
v 2.009530 0.577793 -5.272698
v 2.013143 0.581406 -5.272698
v 2.012850 0.578085 -5.272990
v 2.014639 0.795447 -5.623308
v 2.009530 0.800556 -5.623308
v 2.009530 0.795447 -5.628417
v 2.013143 0.799059 -5.623308
v 2.009530 0.799059 -5.626920
v 2.013143 0.795447 -5.626920
v 2.012850 0.798767 -5.626628
v 2.009530 0.795447 -5.271202
v 2.009530 0.800556 -5.276310
v 2.014639 0.795447 -5.276310
v 2.009530 0.799059 -5.272698
v 2.013142 0.799059 -5.276310
v 2.013142 0.795447 -5.272698
v 2.012850 0.798767 -5.272990
v 1.995572 0.581406 -5.623308
v 2.000681 0.576297 -5.623308
v 2.000681 0.581406 -5.628417
v 1.997069 0.577793 -5.623308
v 2.000681 0.577793 -5.626920
v 1.997069 0.581406 -5.626920
v 1.997361 0.578085 -5.626628
v 2.000681 0.581406 -5.271202
v 2.000681 0.576297 -5.276310
v 1.995572 0.581406 -5.276310
v 2.000681 0.577793 -5.272698
v 1.997069 0.577793 -5.276310
v 1.997069 0.581406 -5.272698
v 1.997361 0.578085 -5.272990
v 2.000681 0.795447 -5.628417
v 2.000681 0.800556 -5.623308
v 1.995572 0.795447 -5.623308
v 2.000681 0.799059 -5.626920
v 1.997068 0.799059 -5.623308
v 1.997068 0.795447 -5.626920
v 1.997361 0.798767 -5.626628
v 1.995572 0.795447 -5.276310
v 2.000681 0.800556 -5.276310
v 2.000681 0.795447 -5.271202
v 1.997068 0.799059 -5.276310
v 2.000681 0.799059 -5.272698
v 1.997068 0.795447 -5.272698
v 1.997361 0.798767 -5.272990
vt 0.105096 0.943532
vt 0.130503 0.940662
vt 0.131030 0.943962
vt 0.105623 0.946832
vt 0.135180 0.934878
vt 0.135180 0.905226
vt 0.139045 0.905020
vt 0.139045 0.934672
vt 0.206274 0.902756
vt 0.256473 0.902756
vt 0.256473 0.933721
vt 0.206274 0.933721
vt 0.097555 0.905299
vt 0.097069 0.937878
vt 0.092819 0.938041
vt 0.093304 0.905463
vt 0.129667 0.900229
vt 0.104644 0.898914
vt 0.104666 0.895639
vt 0.129689 0.896955
vt 0.101700 0.942409
vt 0.102797 0.940111
vt 0.105312 0.940077
vt 0.098518 0.940461
vt 0.101314 0.937686
vt 0.104929 0.936853
vt 0.105447 0.905490
vt 0.101800 0.905107
vt 0.102899 0.902587
vt 0.105362 0.902264
vt 0.098786 0.902833
vt 0.101494 0.900542
vt 0.128235 0.934335
vt 0.131530 0.934125
vt 0.131250 0.936568
vt 0.128961 0.937453
vt 0.133223 0.938107
vt 0.132693 0.902268
vt 0.130996 0.904090
vt 0.128644 0.903562
vt 0.131617 0.906464
vt 0.128382 0.906682
vt 0.095418 0.955780
vt 0.094443 0.952065
vt 0.097240 0.951873
vt 0.098899 0.954152
vt 0.094913 0.948272
vt 0.098347 0.949467
vt 0.101541 0.951334
vt 0.100071 0.891968
vt 0.097334 0.894186
vt 0.095914 0.892041
vt 0.097189 0.889636
vt 0.094148 0.895875
vt 0.093178 0.892242
vt 0.093623 0.888533
vt 0.137287 0.946332
vt 0.139390 0.943229
vt 0.141502 0.944973
vt 0.140946 0.947820
vt 0.142113 0.940512
vt 0.144230 0.943920
vt 0.144925 0.947841
vt 0.142908 0.891023
vt 0.142747 0.894992
vt 0.139923 0.894334
vt 0.138972 0.891578
vt 0.141131 0.898600
vt 0.138101 0.896375
vt 0.135508 0.893566
vt 0.084327 0.938425
vt 0.084813 0.905846
vt 0.089059 0.905654
vt 0.088573 0.938233
vt 0.142906 0.904788
vt 0.142906 0.934440
vt 0.146767 0.904556
vt 0.146767 0.934208
vt 0.131592 0.947250
vt 0.106185 0.950121
vt 0.132154 0.950539
vt 0.106747 0.953409
vt 0.104652 0.892370
vt 0.129675 0.893685
vt 0.104638 0.889100
vt 0.129661 0.890415
vt 0.897842 0.072762
vt 0.897842 0.557650
vt 0.111756 0.557651
vt 0.111756 0.072762
vn 0.000000 0.000000 1.000000
vn 0.000000 -1.000000 0.000000
vn 1.000000 0.000000 0.000000
vn 0.000000 1.000000 0.000000
vn 0.000000 0.000000 -1.000000
vn -0.251800 0.251700 0.934500
vn -0.251700 0.934500 0.251700
vn -0.934500 0.251700 0.251700
vn -0.934500 0.251700 -0.251700
vn -0.251700 0.934500 -0.251700
vn -0.251800 0.251700 -0.934500
vn -0.934500 -0.251700 0.251700
vn -0.251700 -0.934500 0.251700
vn -0.251700 -0.251700 0.934500
vn -0.251800 -0.251700 -0.934500
vn -0.251800 -0.934500 -0.251700
vn -0.934500 -0.251800 -0.251700
vn 0.934500 0.251700 0.251700
vn 0.251700 0.934500 0.251700
vn 0.251700 0.251700 0.934500
vn 0.251800 0.251700 -0.934500
vn 0.251700 0.934500 -0.251700
vn 0.934500 0.251700 -0.251700
vn 0.251800 -0.251700 0.934500
vn 0.251700 -0.934500 0.251700
vn 0.934500 -0.251700 0.251700
vn 0.934500 -0.251700 -0.251700
vn 0.251800 -0.934500 -0.251700
vn 0.251800 -0.251700 -0.934500
vn -0.382700 0.923900 -0.000000
vn -0.923900 0.382700 0.000000
vn -0.923900 -0.382700 -0.000000
vn -0.382700 -0.923900 -0.000000
vn -0.923900 0.000000 0.382700
vn -0.382600 0.000000 0.923900
vn -0.923900 0.000000 -0.382700
vn -0.382600 -0.000000 -0.923900
vn 0.923900 0.382700 0.000000
vn 0.382700 0.923900 0.000000
vn 0.382700 -0.923900 0.000000
vn 0.923900 -0.382700 0.000000
vn 0.382600 0.000000 0.923900
vn 0.923900 0.000000 0.382700
vn 0.382600 0.000000 -0.923900
vn 0.923900 0.000000 -0.382700
vn 0.000000 0.923900 -0.382700
vn 0.000000 0.382700 -0.923900
vn 0.000000 -0.923900 -0.382700
vn 0.000000 -0.382700 -0.923900
vn 0.000000 -0.382700 0.923900
vn 0.000000 -0.923900 0.382700
vn 0.000000 0.923900 0.382700
vn 0.000000 0.382700 0.923900
vn -1.000000 0.000000 0.000000
usemtl Plaques
s off
f 1/1/1 17/2/1 43/3/1 31/4/1
f 16/5/2 23/6/2 51/7/2 44/8/2
f 38/9/3 29/10/3 45/11/3 50/12/3
f 9/13/4 2/14/4 30/15/4 37/16/4
f 22/17/5 10/18/5 36/19/5 52/20/5
f 1/1/6 4/21/6 7/22/6 6/23/6
f 2/24/7 5/25/7 7/22/7 4/21/7
f 3/26/8 6/23/8 7/22/8 5/25/8
f 8/27/9 11/28/9 14/29/9 13/30/9
f 9/31/10 12/32/10 14/29/10 11/28/10
f 10/18/11 13/30/11 14/29/11 12/32/11
f 15/33/12 18/34/12 21/35/12 20/36/12
f 16/5/13 19/37/13 21/35/13 18/34/13
f 17/2/14 20/36/14 21/35/14 19/37/14
f 22/17/15 25/38/15 28/39/15 27/40/15
f 23/6/16 26/41/16 28/39/16 25/38/16
f 24/42/17 27/40/17 28/39/17 26/41/17
f 29/43/18 32/44/18 35/45/18 34/46/18
f 30/47/19 33/48/19 35/45/19 32/44/19
f 31/49/20 34/46/20 35/45/20 33/48/20
f 36/50/21 39/51/21 42/52/21 41/53/21
f 37/54/22 40/55/22 42/52/22 39/51/22
f 38/56/23 41/53/23 42/52/23 40/55/23
f 43/57/24 46/58/24 49/59/24 48/60/24
f 44/61/25 47/62/25 49/59/25 46/58/25
f 45/63/26 48/60/26 49/59/26 47/62/26
f 50/64/27 53/65/27 56/66/27 55/67/27
f 51/68/28 54/69/28 56/66/28 53/65/28
f 52/70/29 55/67/29 56/66/29 54/69/29
f 2/14/30 9/13/30 11/28/30 5/25/30
f 5/25/31 11/28/31 8/27/31 3/26/31
f 15/33/32 24/42/32 26/41/32 18/34/32
f 18/34/33 26/41/33 23/6/33 16/5/33
f 3/26/34 15/33/34 20/36/34 6/23/34
f 6/23/35 20/36/35 17/2/35 1/1/35
f 24/42/36 8/27/36 13/30/36 27/40/36
f 27/40/37 13/30/37 10/18/37 22/17/37
f 29/71/38 38/72/38 40/73/38 32/74/38
f 32/74/39 40/73/39 37/16/39 30/15/39
f 44/8/40 51/7/40 53/75/40 47/76/40
f 47/76/41 53/75/41 50/77/41 45/78/41
f 31/4/42 43/3/42 48/79/42 34/80/42
f 34/80/43 48/79/43 45/81/43 29/82/43
f 52/20/44 36/19/44 41/83/44 55/84/44
f 55/84/45 41/83/45 38/85/45 50/86/45
f 9/31/46 37/54/46 39/51/46 12/32/46
f 12/32/47 39/51/47 36/50/47 10/18/47
f 51/68/48 23/6/48 25/38/48 54/69/48
f 54/69/49 25/38/49 22/17/49 52/70/49
f 43/57/50 17/2/50 19/37/50 46/58/50
f 46/58/51 19/37/51 16/5/51 44/61/51
f 30/47/52 2/24/52 4/21/52 33/48/52
f 33/48/53 4/21/53 1/1/53 31/49/53
f 8/87/54 24/88/54 15/89/54 3/90/54
