# Exported from Wings 3D 2.2.6.1
mtllib p403-PlaqueAR.mtl
o PlaqueAR
#56 vertices, 54 faces
v 2.00953000 0.58140600 -0.18128100
v 2.00953000 0.57629700 -0.17617200
v 2.01463900 0.58140600 -0.17617200
v 2.00953000 0.57779300 -0.17978400
v 2.01314300 0.57779300 -0.17617200
v 2.01314300 0.58140600 -0.17978400
v 2.01285000 0.57808500 -0.17949200
v 2.01463900 0.58140600 0.17082600
v 2.00953000 0.57629700 0.17082600
v 2.00953000 0.58140600 0.17593400
v 2.01314300 0.57779300 0.17082600
v 2.00953000 0.57779300 0.17443800
v 2.01314300 0.58140600 0.17443800
v 2.01285000 0.57808500 0.17414600
v 2.01463900 0.79544700 -0.17617200
v 2.00953000 0.80055600 -0.17617200
v 2.00953000 0.79544700 -0.18128100
v 2.01314300 0.79905900 -0.17617200
v 2.00953000 0.79905900 -0.17978400
v 2.01314300 0.79544700 -0.17978400
v 2.01285000 0.79876700 -0.17949200
v 2.00953000 0.79544700 0.17593400
v 2.00953000 0.80055600 0.17082600
v 2.01463900 0.79544700 0.17082600
v 2.00953000 0.79905900 0.17443800
v 2.01314200 0.79905900 0.17082600
v 2.01314200 0.79544700 0.17443800
v 2.01285000 0.79876700 0.17414600
v 1.99557200 0.58140600 -0.17617200
v 2.00068100 0.57629700 -0.17617200
v 2.00068100 0.58140600 -0.18128100
v 1.99706900 0.57779300 -0.17617200
v 2.00068100 0.57779300 -0.17978400
v 1.99706900 0.58140600 -0.17978400
v 1.99736100 0.57808500 -0.17949200
v 2.00068100 0.58140600 0.17593400
v 2.00068100 0.57629700 0.17082600
v 1.99557200 0.58140600 0.17082600
v 2.00068100 0.57779300 0.17443800
v 1.99706900 0.57779300 0.17082600
v 1.99706900 0.58140600 0.17443800
v 1.99736100 0.57808500 0.17414600
v 2.00068100 0.79544700 -0.18128100
v 2.00068100 0.80055600 -0.17617200
v 1.99557200 0.79544700 -0.17617200
v 2.00068100 0.79905900 -0.17978400
v 1.99706800 0.79905900 -0.17617200
v 1.99706800 0.79544700 -0.17978400
v 1.99736100 0.79876700 -0.17949200
v 1.99557200 0.79544700 0.17082600
v 2.00068100 0.80055600 0.17082600
v 2.00068100 0.79544700 0.17593400
v 1.99706800 0.79905900 0.17082600
v 2.00068100 0.79905900 0.17443800
v 1.99706800 0.79544700 0.17443800
v 1.99736100 0.79876700 0.17414600
vt 8.4327000e-2 0.93842500
vt 8.4813000e-2 0.90584600
vt 8.8573000e-2 0.93823300
vt 8.9059000e-2 0.90565400
vt 9.2819000e-2 0.93804100
vt 9.3178000e-2 0.89224200
vt 9.3304000e-2 0.90546300
vt 9.3623000e-2 0.88853300
vt 9.4148000e-2 0.89587500
vt 9.4443000e-2 0.95206500
vt 9.4913000e-2 0.94827200
vt 9.5418000e-2 0.95578000
vt 9.5914000e-2 0.89204100
vt 9.7069000e-2 0.93787800
vt 9.7189000e-2 0.88963600
vt 9.7240000e-2 0.95187300
vt 9.7334000e-2 0.89418600
vt 9.7555000e-2 0.90529900
vt 9.8347000e-2 0.94946700
vt 9.8518000e-2 0.94046100
vt 9.8786000e-2 0.90283300
vt 9.8899000e-2 0.95415200
vt 0.10007100 0.89196800
vt 0.10131400 0.93768600
vt 0.10149400 0.90054200
vt 0.10154100 0.95133400
vt 0.10170000 0.94240900
vt 0.10180000 0.90510700
vt 0.10279700 0.94011100
vt 0.10289900 0.90258700
vt 0.10463800 0.88910000
vt 0.10464400 0.89891400
vt 0.10465200 0.89237000
vt 0.10466600 0.89563900
vt 0.10492900 0.93685300
vt 0.10509600 0.94353200
vt 0.10531200 0.94007700
vt 0.10536200 0.90226400
vt 0.10544700 0.90549000
vt 0.10562300 0.94683200
vt 0.10618500 0.95012100
vt 0.10674700 0.95340900
vt 0.11175600 7.2762000e-2
vt 0.11175600 0.55765100
vt 0.12823500 0.93433500
vt 0.12838200 0.90668200
vt 0.12864400 0.90356200
vt 0.12896100 0.93745300
vt 0.12966100 0.89041500
vt 0.12966700 0.90022900
vt 0.12967500 0.89368500
vt 0.12968900 0.89695500
vt 0.13050300 0.94066200
vt 0.13099600 0.90409000
vt 0.13103000 0.94396200
vt 0.13125000 0.93656800
vt 0.13153000 0.93412500
vt 0.13159200 0.94725000
vt 0.13161700 0.90646400
vt 0.13215400 0.95053900
vt 0.13269300 0.90226800
vt 0.13322300 0.93810700
vt 0.13518000 0.90522600
vt 0.13518000 0.93487800
vt 0.13550800 0.89356600
vt 0.13728700 0.94633200
vt 0.13810100 0.89637500
vt 0.13897200 0.89157800
vt 0.13904500 0.90502000
vt 0.13904500 0.93467200
vt 0.13939000 0.94322900
vt 0.13992300 0.89433400
vt 0.14094600 0.94782000
vt 0.14113100 0.89860000
vt 0.14150200 0.94497300
vt 0.14211300 0.94051200
vt 0.14274700 0.89499200
vt 0.14290600 0.90478800
vt 0.14290600 0.93444000
vt 0.14290800 0.89102300
vt 0.14423000 0.94392000
vt 0.14492500 0.94784100
vt 0.14676700 0.90455600
vt 0.14676700 0.93420800
vt 0.20627400 0.90275600
vt 0.20627400 0.93372100
vt 0.25647300 0.90275600
vt 0.25647300 0.93372100
vt 0.89784200 7.2762000e-2
vt 0.89784200 0.55765000
vn 0.0000000e+0 0.0000000e+0 -1.00000000
vn 0.25173742 -0.25173742 -0.93448196
vn 0.38278086 0.0000000e+0 -0.92383917
vn 0.0000000e+0 -0.38278086 -0.92383917
vn 0.0000000e+0 -1.00000000 0.0000000e+0
vn 0.25161280 -0.93453033 -0.25168246
vn 0.38256259 -0.92392958 0.0000000e+0
vn 0.0000000e+0 -0.92389214 -0.38265300
vn 0.93448196 -0.25170259 -0.25177227
vn 0.92392958 -0.38256259 0.0000000e+0
vn 0.92389214 0.0000000e+0 -0.38265300
vn 1.00000000 0.0000000e+0 0.0000000e+0
vn 0.25173742 -0.25173742 -0.93448196
vn 0.25161280 -0.93453033 -0.25168246
vn 0.0000000e+0 -0.92389214 -0.38265300
vn 0.0000000e+0 -0.38278086 -0.92383917
vn 0.25161280 -0.93453033 -0.25168246
vn 0.93448196 -0.25170259 -0.25177227
vn 0.38256259 -0.92392958 0.0000000e+0
vn 0.92392958 -0.38256259 0.0000000e+0
vn 0.25173742 -0.25173742 -0.93448196
vn 0.93448196 -0.25170259 -0.25177227
vn 0.92389214 0.0000000e+0 -0.38265300
vn 0.38278086 0.0000000e+0 -0.92383917
vn 0.25173742 -0.25173742 -0.93448196
vn 0.25161280 -0.93453033 -0.25168246
vn 0.93448196 -0.25170259 -0.25177227
vn 0.93448196 -0.25170259 0.25177227
vn 0.92392958 -0.38256259 0.0000000e+0
vn 0.92384692 2.1581074e-6 0.38276216
vn 1.00000000 0.0000000e+0 0.0000000e+0
vn 0.0000000e+0 -1.00000000 0.0000000e+0
vn 0.25161280 -0.93453033 0.25168246
vn 0.38256259 -0.92392958 0.0000000e+0
vn 0.0000000e+0 -0.92389214 0.38265300
vn 0.0000000e+0 0.0000000e+0 1.00000000
vn 0.25161453 -0.25161453 0.93454816
vn 0.38260779 8.9377220e-7 0.92391086
vn 0.0000000e+0 -0.38256259 0.92392958
vn 0.93448196 -0.25170259 0.25177227
vn 0.25161280 -0.93453033 0.25168246
vn 0.38256259 -0.92392958 0.0000000e+0
vn 0.92392958 -0.38256259 0.0000000e+0
vn 0.25161280 -0.93453033 0.25168246
vn 0.25161453 -0.25161453 0.93454816
vn 0.0000000e+0 -0.92389214 0.38265300
vn 0.0000000e+0 -0.38256259 0.92392958
vn 0.93448196 -0.25170259 0.25177227
vn 0.25161453 -0.25161453 0.93454816
vn 0.92384692 2.1581074e-6 0.38276216
vn 0.38260779 8.9377220e-7 0.92391086
vn 0.93448196 -0.25170259 0.25177227
vn 0.25161280 -0.93453033 0.25168246
vn 0.25161453 -0.25161453 0.93454816
vn 0.93446412 0.25177053 -0.25177053
vn 0.92384692 0.38276216 1.3311992e-6
vn 0.92389214 0.0000000e+0 -0.38265300
vn 1.00000000 0.0000000e+0 0.0000000e+0
vn 0.0000000e+0 1.00000000 0.0000000e+0
vn 0.25173568 0.93446412 -0.25180538
vn 0.38282607 0.92382044 5.5162576e-7
vn 0.0000000e+0 0.92380169 -0.38287130
vn 0.0000000e+0 0.0000000e+0 -1.00000000
vn 0.25173568 0.25180538 -0.93446412
vn 0.38278086 0.0000000e+0 -0.92383917
vn 0.0000000e+0 0.38287130 -0.92380169
vn 0.93446412 0.25177053 -0.25177053
vn 0.25173568 0.93446412 -0.25180538
vn 0.92384692 0.38276216 1.3311992e-6
vn 0.38282607 0.92382044 5.5162576e-7
vn 0.25173568 0.93446412 -0.25180538
vn 0.25173568 0.25180538 -0.93446412
vn 0.0000000e+0 0.38287130 -0.92380169
vn 0.0000000e+0 0.92380169 -0.38287130
vn 0.93446412 0.25177053 -0.25177053
vn 0.25173568 0.25180538 -0.93446412
vn 0.92389214 0.0000000e+0 -0.38265300
vn 0.38278086 0.0000000e+0 -0.92383917
vn 0.93446412 0.25177053 -0.25177053
vn 0.25173568 0.93446412 -0.25180538
vn 0.25173568 0.25180538 -0.93446412
vn 0.0000000e+0 0.0000000e+0 1.00000000
vn 0.25164763 0.25164763 0.93453033
vn 0.38260779 8.9377220e-7 0.92391086
vn 0.0000000e+0 0.38265300 0.92389214
vn 0.0000000e+0 1.00000000 0.0000000e+0
vn 0.25177053 0.93446412 0.25177053
vn 0.38282607 0.92382044 5.5162576e-7
vn 0.0000000e+0 0.92380169 0.38287130
vn 0.93446412 0.25177053 0.25177053
vn 0.92384692 0.38276216 1.3311992e-6
vn 0.92384692 2.1581074e-6 0.38276216
vn 1.00000000 0.0000000e+0 0.0000000e+0
vn 0.25164763 0.25164763 0.93453033
vn 0.25177053 0.93446412 0.25177053
vn 0.0000000e+0 0.92380169 0.38287130
vn 0.0000000e+0 0.38265300 0.92389214
vn 0.25177053 0.93446412 0.25177053
vn 0.93446412 0.25177053 0.25177053
vn 0.92384692 0.38276216 1.3311992e-6
vn 0.38282607 0.92382044 5.5162576e-7
vn 0.25164763 0.25164763 0.93453033
vn 0.93446412 0.25177053 0.25177053
vn 0.92384692 2.1581074e-6 0.38276216
vn 0.38260779 8.9377220e-7 0.92391086
vn 0.25164763 0.25164763 0.93453033
vn 0.25177053 0.93446412 0.25177053
vn 0.93446412 0.25177053 0.25177053
vn -1.00000000 0.0000000e+0 0.0000000e+0
vn -0.93448196 -0.25170259 -0.25177227
vn -0.92383917 -0.38278086 0.0000000e+0
vn -0.92384692 -2.1581074e-6 -0.38276216
vn 0.0000000e+0 -1.00000000 0.0000000e+0
vn -0.25164763 -0.93453033 -0.25164763
vn -0.38265300 -0.92389214 0.0000000e+0
vn 0.0000000e+0 -0.92389214 -0.38265300
vn 0.0000000e+0 0.0000000e+0 -1.00000000
vn -0.25177227 -0.25170259 -0.93448196
vn -0.38282607 -8.9428211e-7 -0.92382044
vn 0.0000000e+0 -0.38278086 -0.92383917
vn -0.93448196 -0.25170259 -0.25177227
vn -0.25164763 -0.93453033 -0.25164763
vn -0.92383917 -0.38278086 0.0000000e+0
vn -0.38265300 -0.92389214 0.0000000e+0
vn -0.25164763 -0.93453033 -0.25164763
vn -0.25177227 -0.25170259 -0.93448196
vn 0.0000000e+0 -0.92389214 -0.38265300
vn 0.0000000e+0 -0.38278086 -0.92383917
vn -0.93448196 -0.25170259 -0.25177227
vn -0.25177227 -0.25170259 -0.93448196
vn -0.38282607 -8.9428211e-7 -0.92382044
vn -0.92384692 -2.1581074e-6 -0.38276216
vn -0.93448196 -0.25170259 -0.25177227
vn -0.25164763 -0.93453033 -0.25164763
vn -0.25177227 -0.25170259 -0.93448196
vn 0.0000000e+0 0.0000000e+0 1.00000000
vn -0.25164936 -0.25157971 0.93454815
vn -0.38260779 -8.9377220e-7 0.92391086
vn 0.0000000e+0 -0.38256259 0.92392958
vn 0.0000000e+0 -1.00000000 0.0000000e+0
vn -0.25164763 -0.93453033 0.25164763
vn -0.38265300 -0.92389214 0.0000000e+0
vn 0.0000000e+0 -0.92389214 0.38265300
vn -1.00000000 0.0000000e+0 0.0000000e+0
vn -0.93448196 -0.25170259 0.25177227
vn -0.92383917 -0.38278086 0.0000000e+0
vn -0.92384692 -2.1581074e-6 0.38276216
vn -0.25164936 -0.25157971 0.93454815
vn -0.25164763 -0.93453033 0.25164763
vn 0.0000000e+0 -0.92389214 0.38265300
vn 0.0000000e+0 -0.38256259 0.92392958
vn -0.25164763 -0.93453033 0.25164763
vn -0.93448196 -0.25170259 0.25177227
vn -0.92383917 -0.38278086 0.0000000e+0
vn -0.38265300 -0.92389214 0.0000000e+0
vn -0.25164936 -0.25157971 0.93454815
vn -0.93448196 -0.25170259 0.25177227
vn -0.38260779 -8.9377220e-7 0.92391086
vn -0.92384692 -2.1581074e-6 0.38276216
vn -0.25164936 -0.25157971 0.93454815
vn -0.25164763 -0.93453033 0.25164763
vn -0.93448196 -0.25170259 0.25177227
vn 0.0000000e+0 0.0000000e+0 -1.00000000
vn -0.25173568 0.25180538 -0.93446412
vn -0.38282607 -8.9428211e-7 -0.92382044
vn 0.0000000e+0 0.38287130 -0.92380169
vn 0.0000000e+0 1.00000000 0.0000000e+0
vn -0.25173568 0.93446412 -0.25180538
vn -0.38278086 0.92383917 0.0000000e+0
vn 0.0000000e+0 0.92380169 -0.38287130
vn -1.00000000 0.0000000e+0 0.0000000e+0
vn -0.93446412 0.25177053 -0.25177053
vn -0.92389214 0.38265300 0.0000000e+0
vn -0.92384692 -2.1581074e-6 -0.38276216
vn -0.25173568 0.25180538 -0.93446412
vn -0.25173568 0.93446412 -0.25180538
vn 0.0000000e+0 0.38287130 -0.92380169
vn 0.0000000e+0 0.92380169 -0.38287130
vn -0.25173568 0.93446412 -0.25180538
vn -0.93446412 0.25177053 -0.25177053
vn -0.38278086 0.92383917 0.0000000e+0
vn -0.92389214 0.38265300 0.0000000e+0
vn -0.25173568 0.25180538 -0.93446412
vn -0.93446412 0.25177053 -0.25177053
vn -0.38282607 -8.9428211e-7 -0.92382044
vn -0.92384692 -2.1581074e-6 -0.38276216
vn -0.25173568 0.25180538 -0.93446412
vn -0.25173568 0.93446412 -0.25180538
vn -0.93446412 0.25177053 -0.25177053
vn -1.00000000 0.0000000e+0 0.0000000e+0
vn -0.93446412 0.25177053 0.25177053
vn -0.92389214 0.38265300 0.0000000e+0
vn -0.92384692 -2.1581074e-6 0.38276216
vn 0.0000000e+0 1.00000000 0.0000000e+0
vn -0.25173568 0.93446412 0.25180538
vn -0.38278086 0.92383917 0.0000000e+0
vn 0.0000000e+0 0.92380169 0.38287130
vn 0.0000000e+0 0.0000000e+0 1.00000000
vn -0.25161280 0.25168246 0.93453033
vn -0.38260779 -8.9377220e-7 0.92391086
vn 0.0000000e+0 0.38265300 0.92389214
vn -0.93446412 0.25177053 0.25177053
vn -0.25173568 0.93446412 0.25180538
vn -0.38278086 0.92383917 0.0000000e+0
vn -0.92389214 0.38265300 0.0000000e+0
vn -0.25173568 0.93446412 0.25180538
vn -0.25161280 0.25168246 0.93453033
vn 0.0000000e+0 0.92380169 0.38287130
vn 0.0000000e+0 0.38265300 0.92389214
vn -0.93446412 0.25177053 0.25177053
vn -0.25161280 0.25168246 0.93453033
vn -0.38260779 -8.9377220e-7 0.92391086
vn -0.92384692 -2.1581074e-6 0.38276216
vn -0.93446412 0.25177053 0.25177053
vn -0.25173568 0.93446412 0.25180538
vn -0.25161280 0.25168246 0.93453033
g PlaqueAR
usemtl Plaques
s 1
f 1/36/2 6/37/21 7/29/25 4/27/13
f 1/36/1 31/40/117 43/55/163 17/53/63
f 2/20/8 30/11/116 33/19/127 4/27/15
f 3/43/12 15/44/58 24/90/93 8/89/31
f 5/24/19 11/28/42 9/18/34 2/14/7
f 8/39/28 13/38/48 14/30/52 11/28/40
f 10/32/39 36/23/139 39/17/151 12/25/47
f 13/38/51 27/47/105 22/50/84 10/32/38
f 15/45/55 20/48/75 21/56/79 18/57/67
f 16/64/61 23/63/88 26/59/101 18/57/70
f 19/62/74 46/71/178 44/76/170 16/64/62
f 25/61/97 54/67/209 52/65/201 22/50/85
f 26/59/99 28/54/108 27/47/103 24/46/90
f 29/12/110 34/22/129 35/16/133 32/10/121
f 30/5/115 37/7/142 40/4/155 32/3/124
f 36/34/138 52/52/200 55/51/212 41/33/158
f 38/85/144 50/86/190 45/88/171 29/87/109
f 40/6/153 42/13/162 41/15/157 38/8/145
f 43/66/164 48/73/183 49/75/187 46/71/175
f 53/77/203 56/72/215 54/67/206 51/74/195
s 2
f 3/35/10 8/39/29 11/28/43 5/24/20
f 4/27/14 7/29/26 5/24/17 2/20/6
f 4/27/16 33/19/128 31/26/120 1/36/4
f 6/37/23 20/48/77 15/45/57 3/35/11
f 8/39/30 24/46/92 27/47/104 13/38/50
f 9/18/32 37/7/140 30/5/113 2/14/5
f 11/28/41 14/30/53 12/25/44 9/21/33
f 17/53/66 43/66/166 46/71/177 19/62/73
f 18/57/68 21/56/80 19/62/71 16/64/60
f 18/57/69 26/59/100 24/46/91 15/45/56
f 22/50/83 27/47/102 28/54/106 25/61/94
f 22/50/82 52/52/198 36/34/136 10/32/36
f 23/63/89 51/74/197 54/67/208 25/61/96
f 29/42/112 45/60/174 48/58/186 34/41/132
f 32/10/122 35/16/134 33/19/125 30/11/114
f 32/3/123 40/4/154 38/2/146 29/1/111
f 36/23/137 41/15/156 42/13/160 39/17/148
f 41/33/159 55/51/213 50/49/193 38/31/147
f 47/79/181 53/78/204 51/69/196 44/70/169
f 54/67/207 56/72/216 55/68/211 52/65/199
s 3
f 1/36/3 17/53/65 20/48/78 6/37/24
f 5/24/18 7/29/27 6/37/22 3/35/9
f 12/25/45 14/30/54 13/38/49 10/32/37
f 16/64/59 44/70/167 51/69/194 23/63/86
f 25/61/95 28/54/107 26/59/98 23/63/87
f 33/19/126 35/16/135 34/22/130 31/26/118
f 39/17/149 42/13/161 40/6/152 37/9/141
f 46/71/176 49/75/188 47/81/179 44/76/168
f 50/80/191 55/68/210 56/72/214 53/77/202
s 4
f 12/25/46 39/17/150 37/9/143 9/21/35
f 19/62/72 21/56/81 20/48/76 17/53/64
f 34/41/131 48/58/185 43/55/165 31/40/119
f 45/84/173 50/83/192 53/78/205 47/79/182
s 5
f 47/81/180 49/75/189 48/73/184 45/82/172
