# Exported from Wings 3D 2.2.6.1
mtllib p403-PlaqueAV.mtl
o PlaqueAV
#56 vertices, 54 faces
v -2.64774700 0.48640200 -0.24139400
v -2.64774700 0.48371300 -0.23441800
v -2.64263800 0.48640200 -0.23441800
v -2.64774700 0.48450000 -0.23935100
v -2.64413500 0.48450000 -0.23441800
v -2.64413500 0.48640200 -0.23935100
v -2.64442700 0.48465400 -0.23895200
v -2.64263800 0.48640200 0.23940700
v -2.64774700 0.48371300 0.23940700
v -2.64774700 0.48640200 0.24638300
v -2.64413500 0.48450000 0.23940700
v -2.64774700 0.48450000 0.24434000
v -2.64413500 0.48640200 0.24434000
v -2.64442700 0.48465400 0.24394000
v -2.64263800 0.59905900 -0.23441800
v -2.64774700 0.60174800 -0.23441800
v -2.64774700 0.59905900 -0.24139400
v -2.64413500 0.60096000 -0.23441800
v -2.64774700 0.60096000 -0.23935100
v -2.64413500 0.59905900 -0.23935100
v -2.64442700 0.60080600 -0.23895200
v -2.64774700 0.59905900 0.24638300
v -2.64774700 0.60174800 0.23940700
v -2.64263800 0.59905900 0.23940700
v -2.64774700 0.60096000 0.24434000
v -2.64413500 0.60096000 0.23940700
v -2.64413500 0.59905900 0.24434000
v -2.64442700 0.60080600 0.24394000
v -2.66170500 0.48640200 -0.23441800
v -2.65659600 0.48371300 -0.23441800
v -2.65659600 0.48640200 -0.24139400
v -2.66020900 0.48450000 -0.23441800
v -2.65659600 0.48450000 -0.23935100
v -2.66020900 0.48640200 -0.23935100
v -2.65991600 0.48465400 -0.23895200
v -2.65659600 0.48640200 0.24638300
v -2.65659600 0.48371300 0.23940700
v -2.66170500 0.48640200 0.23940700
v -2.65659600 0.48450000 0.24434000
v -2.66020900 0.48450000 0.23940700
v -2.66020900 0.48640200 0.24434000
v -2.65991600 0.48465400 0.24394000
v -2.65659600 0.59905900 -0.24139400
v -2.65659600 0.60174800 -0.23441800
v -2.66170500 0.59905900 -0.23441800
v -2.65659600 0.60096000 -0.23935100
v -2.66020900 0.60096000 -0.23441800
v -2.66020900 0.59905900 -0.23935100
v -2.65991600 0.60080600 -0.23895200
v -2.66170500 0.59905900 0.23940700
v -2.65659600 0.60174800 0.23940700
v -2.65659600 0.59905900 0.24638300
v -2.66020900 0.60096000 0.23940700
v -2.65659600 0.60096000 0.24434000
v -2.66020900 0.59905900 0.24434000
v -2.65991600 0.60080600 0.24394000
vt 0.0000000e+0 0.0000000e+0
vt 0.11012800 0.58928700
vt 0.11012800 0.85138500
vt 0.90657800 0.58928700
vt 0.90657800 0.85138500
vn 0.0000000e+0 0.0000000e+0 1.00000000
vn -0.28868952 0.54823688 0.78491699
vn -0.49231927 0.0000000e+0 0.87041469
vn 0.0000000e+0 0.73191246 0.68139868
vn 0.0000000e+0 1.00000000 0.0000000e+0
vn -0.13958322 0.98492171 0.10220446
vn -0.21289007 0.97707616 0.0000000e+0
vn 0.0000000e+0 0.98751174 0.15754546
vn -0.87679934 0.44866210 0.17298912
vn -0.78580196 0.61847820 0.0000000e+0
vn -0.95690849 0.0000000e+0 0.29038962
vn -1.00000000 0.0000000e+0 0.0000000e+0
vn -0.28868952 0.54823688 0.78491699
vn -0.13958322 0.98492171 0.10220446
vn 0.0000000e+0 0.98751174 0.15754546
vn 0.0000000e+0 0.73191246 0.68139868
vn -0.13958322 0.98492171 0.10220446
vn -0.87679934 0.44866210 0.17298912
vn -0.21289007 0.97707616 0.0000000e+0
vn -0.78580196 0.61847820 0.0000000e+0
vn -0.28868952 0.54823688 0.78491699
vn -0.87679934 0.44866210 0.17298912
vn -0.95690849 0.0000000e+0 0.29038962
vn -0.49231927 0.0000000e+0 0.87041469
vn -0.28868952 0.54823688 0.78491699
vn -0.13958322 0.98492171 0.10220446
vn -0.87679934 0.44866210 0.17298912
vn -0.87677698 0.44870014 -0.17300379
vn -0.78580196 0.61847820 0.0000000e+0
vn -0.95690849 0.0000000e+0 -0.29038962
vn -1.00000000 0.0000000e+0 0.0000000e+0
vn 0.0000000e+0 1.00000000 0.0000000e+0
vn -0.13959816 0.98491846 -0.10221540
vn -0.21289007 0.97707616 0.0000000e+0
vn 0.0000000e+0 0.98751174 -0.15754546
vn 0.0000000e+0 0.0000000e+0 -1.00000000
vn -0.28876234 0.54837517 -0.78479360
vn -0.49231927 0.0000000e+0 -0.87041469
vn 0.0000000e+0 0.73191246 -0.68139868
vn -0.87677698 0.44870014 -0.17300379
vn -0.13959816 0.98491846 -0.10221540
vn -0.21289007 0.97707616 0.0000000e+0
vn -0.78580196 0.61847820 0.0000000e+0
vn -0.13959816 0.98491846 -0.10221540
vn -0.28876234 0.54837517 -0.78479360
vn 0.0000000e+0 0.98751174 -0.15754546
vn 0.0000000e+0 0.73191246 -0.68139868
vn -0.87677698 0.44870014 -0.17300379
vn -0.28876234 0.54837517 -0.78479360
vn -0.95690849 0.0000000e+0 -0.29038962
vn -0.49231927 0.0000000e+0 -0.87041469
vn -0.87677698 0.44870014 -0.17300379
vn -0.13959816 0.98491846 -0.10221540
vn -0.28876234 0.54837517 -0.78479360
vn -0.87670178 -0.44885857 0.17297388
vn -0.78564385 -0.61867903 0.0000000e+0
vn -0.95690849 0.0000000e+0 0.29038962
vn -1.00000000 0.0000000e+0 0.0000000e+0
vn 0.0000000e+0 -1.00000000 0.0000000e+0
vn -0.13972711 -0.98489037 0.10230982
vn -0.21314830 -0.97701986 0.0000000e+0
vn 0.0000000e+0 -0.98748057 0.15774066
vn 0.0000000e+0 0.0000000e+0 1.00000000
vn -0.28864800 -0.54844638 0.78478590
vn -0.49231927 0.0000000e+0 0.87041469
vn 0.0000000e+0 -0.73209115 0.68120669
vn -0.87670178 -0.44885857 0.17297388
vn -0.13972711 -0.98489037 0.10230982
vn -0.78564385 -0.61867903 0.0000000e+0
vn -0.21314830 -0.97701986 0.0000000e+0
vn -0.13972711 -0.98489037 0.10230982
vn -0.28864800 -0.54844638 0.78478590
vn 0.0000000e+0 -0.73209115 0.68120669
vn 0.0000000e+0 -0.98748057 0.15774066
vn -0.87670178 -0.44885857 0.17297388
vn -0.28864800 -0.54844638 0.78478590
vn -0.95690849 0.0000000e+0 0.29038962
vn -0.49231927 0.0000000e+0 0.87041469
vn -0.87670178 -0.44885857 0.17297388
vn -0.13972711 -0.98489037 0.10230982
vn -0.28864800 -0.54844638 0.78478590
vn 0.0000000e+0 0.0000000e+0 -1.00000000
vn -0.28872078 -0.54858467 -0.78466246
vn -0.49231927 0.0000000e+0 -0.87041469
vn 0.0000000e+0 -0.73209115 -0.68120669
vn 0.0000000e+0 -1.00000000 0.0000000e+0
vn -0.13974206 -0.98488711 -0.10232076
vn -0.21314830 -0.97701986 0.0000000e+0
vn 0.0000000e+0 -0.98748057 -0.15774066
vn -0.87667941 -0.44889662 -0.17298854
vn -0.78564385 -0.61867903 0.0000000e+0
vn -0.95690849 0.0000000e+0 -0.29038962
vn -1.00000000 0.0000000e+0 0.0000000e+0
vn -0.28872078 -0.54858467 -0.78466246
vn -0.13974206 -0.98488711 -0.10232076
vn 0.0000000e+0 -0.98748057 -0.15774066
vn 0.0000000e+0 -0.73209115 -0.68120669
vn -0.13974206 -0.98488711 -0.10232076
vn -0.87667941 -0.44889662 -0.17298854
vn -0.78564385 -0.61867903 0.0000000e+0
vn -0.21314830 -0.97701986 0.0000000e+0
vn -0.28872078 -0.54858467 -0.78466246
vn -0.87667941 -0.44889662 -0.17298854
vn -0.95690849 0.0000000e+0 -0.29038962
vn -0.49231927 0.0000000e+0 -0.87041469
vn -0.28872078 -0.54858467 -0.78466246
vn -0.13974206 -0.98488711 -0.10232076
vn -0.87667941 -0.44889662 -0.17298854
vn 1.00000000 0.0000000e+0 0.0000000e+0
vn 0.87679934 0.44866210 0.17298912
vn 0.78600276 0.61822299 0.0000000e+0
vn 0.95696238 0.0000000e+0 0.29021199
vn 0.0000000e+0 1.00000000 0.0000000e+0
vn 0.13956408 0.98492294 0.10221873
vn 0.21283382 0.97708841 0.0000000e+0
vn 0.0000000e+0 0.98751174 0.15754546
vn 0.0000000e+0 0.0000000e+0 1.00000000
vn 0.28864089 0.54829628 0.78489339
vn 0.49221603 0.0000000e+0 0.87047308
vn 0.0000000e+0 0.73191246 0.68139868
vn 0.87679934 0.44866210 0.17298912
vn 0.13956408 0.98492294 0.10221873
vn 0.78600276 0.61822299 0.0000000e+0
vn 0.21283382 0.97708841 0.0000000e+0
vn 0.13956408 0.98492294 0.10221873
vn 0.28864089 0.54829628 0.78489339
vn 0.0000000e+0 0.98751174 0.15754546
vn 0.0000000e+0 0.73191246 0.68139868
vn 0.87679934 0.44866210 0.17298912
vn 0.28864089 0.54829628 0.78489339
vn 0.49221603 0.0000000e+0 0.87047308
vn 0.95696238 0.0000000e+0 0.29021199
vn 0.87679934 0.44866210 0.17298912
vn 0.13956408 0.98492294 0.10221873
vn 0.28864089 0.54829628 0.78489339
vn 0.0000000e+0 0.0000000e+0 -1.00000000
vn 0.28871369 0.54843457 -0.78476998
vn 0.49221603 0.0000000e+0 -0.87047308
vn 0.0000000e+0 0.73191246 -0.68139868
vn 0.0000000e+0 1.00000000 0.0000000e+0
vn 0.13957901 0.98491969 -0.10222967
vn 0.21283382 0.97708841 0.0000000e+0
vn 0.0000000e+0 0.98751174 -0.15754546
vn 1.00000000 0.0000000e+0 0.0000000e+0
vn 0.87677698 0.44870014 -0.17300379
vn 0.78600276 0.61822299 0.0000000e+0
vn 0.95696238 0.0000000e+0 -0.29021199
vn 0.28871369 0.54843457 -0.78476998
vn 0.13957901 0.98491969 -0.10222967
vn 0.0000000e+0 0.98751174 -0.15754546
vn 0.0000000e+0 0.73191246 -0.68139868
vn 0.13957901 0.98491969 -0.10222967
vn 0.87677698 0.44870014 -0.17300379
vn 0.78600276 0.61822299 0.0000000e+0
vn 0.21283382 0.97708841 0.0000000e+0
vn 0.28871369 0.54843457 -0.78476998
vn 0.87677698 0.44870014 -0.17300379
vn 0.49221603 0.0000000e+0 -0.87047308
vn 0.95696238 0.0000000e+0 -0.29021199
vn 0.28871369 0.54843457 -0.78476998
vn 0.13957901 0.98491969 -0.10222967
vn 0.87677698 0.44870014 -0.17300379
vn 0.0000000e+0 0.0000000e+0 1.00000000
vn 0.28859936 -0.54850578 0.78476227
vn 0.49221603 0.0000000e+0 0.87047308
vn 0.0000000e+0 -0.73209115 0.68120669
vn 0.0000000e+0 -1.00000000 0.0000000e+0
vn 0.13970795 -0.98489160 0.10232411
vn 0.21309198 -0.97703214 0.0000000e+0
vn 0.0000000e+0 -0.98748057 0.15774066
vn 1.00000000 0.0000000e+0 0.0000000e+0
vn 0.87670178 -0.44885857 0.17297388
vn 0.78584474 -0.61842384 0.0000000e+0
vn 0.95696238 0.0000000e+0 0.29021199
vn 0.28859936 -0.54850578 0.78476227
vn 0.13970795 -0.98489160 0.10232411
vn 0.0000000e+0 -0.73209115 0.68120669
vn 0.0000000e+0 -0.98748057 0.15774066
vn 0.13970795 -0.98489160 0.10232411
vn 0.87670178 -0.44885857 0.17297388
vn 0.21309198 -0.97703214 0.0000000e+0
vn 0.78584474 -0.61842384 0.0000000e+0
vn 0.28859936 -0.54850578 0.78476227
vn 0.87670178 -0.44885857 0.17297388
vn 0.49221603 0.0000000e+0 0.87047308
vn 0.95696238 0.0000000e+0 0.29021199
vn 0.28859936 -0.54850578 0.78476227
vn 0.13970795 -0.98489160 0.10232411
vn 0.87670178 -0.44885857 0.17297388
vn 1.00000000 0.0000000e+0 0.0000000e+0
vn 0.87667941 -0.44889662 -0.17298854
vn 0.78584474 -0.61842384 0.0000000e+0
vn 0.95696238 0.0000000e+0 -0.29021199
vn 0.0000000e+0 -1.00000000 0.0000000e+0
vn 0.13972290 -0.98488834 -0.10233505
vn 0.21309198 -0.97703214 0.0000000e+0
vn 0.0000000e+0 -0.98748057 -0.15774066
vn 0.0000000e+0 0.0000000e+0 -1.00000000
vn 0.28867212 -0.54864407 -0.78463882
vn 0.49221603 0.0000000e+0 -0.87047308
vn 0.0000000e+0 -0.73209115 -0.68120669
vn 0.87667941 -0.44889662 -0.17298854
vn 0.13972290 -0.98488834 -0.10233505
vn 0.21309198 -0.97703214 0.0000000e+0
vn 0.78584474 -0.61842384 0.0000000e+0
vn 0.13972290 -0.98488834 -0.10233505
vn 0.28867212 -0.54864407 -0.78463882
vn 0.0000000e+0 -0.98748057 -0.15774066
vn 0.0000000e+0 -0.73209115 -0.68120669
vn 0.87667941 -0.44889662 -0.17298854
vn 0.28867212 -0.54864407 -0.78463882
vn 0.49221603 0.0000000e+0 -0.87047308
vn 0.95696238 0.0000000e+0 -0.29021199
vn 0.87667941 -0.44889662 -0.17298854
vn 0.13972290 -0.98488834 -0.10233505
vn 0.28867212 -0.54864407 -0.78463882
g PlaqueAV
usemtl Plaques
s 1
f 2/1/7 9/1/34 11/1/42 5/1/19
f 4/1/13 7/1/25 6/1/21 1/1/2
f 4/1/15 33/1/127 30/1/116 2/1/8
f 8/1/31 24/1/93 15/1/58 3/1/12
f 10/1/38 22/1/84 27/1/105 13/1/51
f 11/1/40 14/1/52 13/1/48 8/1/28
f 12/1/47 39/1/151 36/1/139 10/1/39
f 16/1/62 44/1/170 46/1/178 19/1/74
f 17/1/63 43/1/163 31/1/117 1/1/1
f 18/1/67 21/1/79 20/1/75 15/1/55
f 18/1/70 26/1/101 23/1/88 16/1/61
f 22/1/85 52/1/201 54/1/209 25/1/97
f 24/1/90 27/1/103 28/1/108 26/1/99
f 29/4/109 45/5/171 50/3/190 38/2/144
f 32/1/121 35/1/133 34/1/129 29/1/110
f 32/1/124 40/1/155 37/1/142 30/1/115
f 38/1/145 41/1/157 42/1/162 40/1/153
f 41/1/158 55/1/212 52/1/200 36/1/138
f 46/1/175 49/1/187 48/1/183 43/1/164
f 51/1/195 54/1/206 56/1/215 53/1/203
s 2
f 1/1/4 31/1/120 33/1/128 4/1/16
f 2/1/6 5/1/17 7/1/26 4/1/14
f 2/1/5 30/1/113 37/1/140 9/1/32
f 3/1/11 15/1/57 20/1/77 6/1/23
f 5/1/20 11/1/43 8/1/29 3/1/10
f 9/1/33 12/1/44 14/1/53 11/1/41
f 10/1/36 36/1/136 52/1/198 22/1/82
f 13/1/50 27/1/104 24/1/92 8/1/30
f 15/1/56 24/1/91 26/1/100 18/1/69
f 16/1/60 19/1/71 21/1/80 18/1/68
f 19/1/73 46/1/177 43/1/166 17/1/66
f 25/1/94 28/1/106 27/1/102 22/1/83
f 25/1/96 54/1/208 51/1/197 23/1/89
f 29/1/111 38/1/146 40/1/154 32/1/123
f 30/1/114 33/1/125 35/1/134 32/1/122
f 34/1/132 48/1/186 45/1/174 29/1/112
f 38/1/147 50/1/193 55/1/213 41/1/159
f 39/1/148 42/1/160 41/1/156 36/1/137
f 44/1/169 51/1/196 53/1/204 47/1/181
f 52/1/199 55/1/211 56/1/216 54/1/207
s 3
f 3/1/9 6/1/22 7/1/27 5/1/18
f 6/1/24 20/1/78 17/1/65 1/1/3
f 10/1/37 13/1/49 14/1/54 12/1/45
f 23/1/87 26/1/98 28/1/107 25/1/95
f 23/1/86 51/1/194 44/1/167 16/1/59
f 31/1/118 34/1/130 35/1/135 33/1/126
f 37/1/141 40/1/152 42/1/161 39/1/149
f 44/1/168 47/1/179 49/1/188 46/1/176
f 53/1/202 56/1/214 55/1/210 50/1/191
s 4
f 9/1/35 37/1/143 39/1/150 12/1/46
f 17/1/64 20/1/76 21/1/81 19/1/72
f 31/1/119 43/1/165 48/1/185 34/1/131
f 47/1/182 53/1/205 50/1/192 45/1/173
s 5
f 45/1/172 48/1/184 49/1/189 47/1/180
