<svg id="Layer_2" data-name="Layer 2" xmlns="http://www.w3.org/2000/svg" viewBox="0 0 725.33 94.86"><defs><style>.cls-1{fill:#fccccc;}</style></defs><title>Artboard 5</title><path class="cls-1" d="M86,80.95A45.43,45.43,0,0,1,52.66,94.76,45.56,45.56,0,0,1,19.21,80.95,45.56,45.56,0,0,1,5.4,47.5,45.44,45.44,0,0,1,19.21,14.15,45.56,45.56,0,0,1,52.66.34,45.44,45.44,0,0,1,86,14.15l-1.94,1.94A42.82,42.82,0,0,0,52.66,3,42.94,42.94,0,0,0,21.15,16.09,42.81,42.81,0,0,0,8.09,47.5,42.94,42.94,0,0,0,21.15,79,42.94,42.94,0,0,0,52.66,92.06,42.81,42.81,0,0,0,84.06,79Z"/><path class="cls-1" d="M178.05,48.9V92.06h-2.7V3h2.7V46.2H245.5V3h2.7v89h-2.7V48.9Z"/><path class="cls-1" d="M518,6.71V92.06h-2.7V3h3.45L580.67,88.4V3h2.7v89h-3.45Z"/><path class="cls-1" d="M677.89,3v89h-2.7V3ZM692.14,47.5,724.4,92.06h-3.45L688.68,47.5,720.95,3h3.45Z"/><path class="cls-1" d="M381.8.08a47.36,47.36,0,1,0,47.36,47.36A47.36,47.36,0,0,0,381.8.08Zm22.45,85.79a43.6,43.6,0,0,1-20.81,5.94,45.31,45.31,0,0,1-38.19-19.12c-12.77-18.38-6.08-38.5-5.37-40.5a20.12,20.12,0,0,1,2.78-5.34c1.18-1.62,2.2-3,3.38-2.87s1.9,1.7,2.63,3.28a14.47,14.47,0,0,1,1.25,4.66,34.32,34.32,0,0,1,14.87.72c.55-1,1.06-1.83,1.44-2.41,1.94-2.93,3.07-3.61,3.56-3.87a2.67,2.67,0,0,1,1.81-.53c1.38.29,2,2.4,2.66,4.34a19,19,0,0,1,.68,3c.18.94.43,2.2.74,3.69a42.93,42.93,0,0,0,1.58,6A5.65,5.65,0,0,0,378.37,45a4.24,4.24,0,0,0,3,1.5c2.22-.06,3.78-2.81,4.46-4,.22-.39.31-.61,1-1.79s1.09-1.94,1.42-2.5c.84-1.52,4.19-7.19,10.13-8.79a21.39,21.39,0,0,1,8.1-.44c2.59.35,3.51,1,3.74.65.74-1.11-7.29-11.41-19.21-13.42a30.49,30.49,0,0,0-13,.83,60.35,60.35,0,0,0-8.58,3.42c-3.42,1.72-3.94,2.45-6,2.79-2.81.47-7.17,0-8.79-2.87a6,6,0,0,1-.46-4.12c.2-1.06,1-4.16,6.08-7.38a40.91,40.91,0,0,1,26-5.48A44.9,44.9,0,0,1,410.5,13.56c16.84,14.2,15.83,35.57,15.75,36.81A44.89,44.89,0,0,1,404.25,85.87Z"/></svg>