<svg xmlns="http://www.w3.org/2000/svg" viewBox="0 0 132 132"><defs><style>.cls-2{fill:#25fefd}.cls-3{fill:#fff}</style></defs><g id="symbol"><rect width="132" height="132" rx="6" ry="6" style="fill:#119dff"/><circle class="cls-2" cx="78" cy="54" r="6"/><circle class="cls-2" cx="102" cy="30" r="6"/><circle class="cls-2" cx="78" cy="30" r="6"/><circle class="cls-2" cx="54" cy="30" r="6"/><circle class="cls-2" cx="30" cy="30" r="6"/><circle class="cls-2" cx="30" cy="54" r="6"/><path class="cls-3" d="M30 72a6 6 0 0 0-6 6v24a6 6 0 0 0 12 0V78a6 6 0 0 0-6-6ZM78 72a6 6 0 0 0-6 6v24a6 6 0 0 0 12 0V78a6 6 0 0 0-6-6ZM54 48a6 6 0 0 0-6 6v48a6 6 0 0 0 12 0V54a6 6 0 0 0-6-6ZM102 48a6 6 0 0 0-6 6v48a6 6 0 0 0 12 0V54a6 6 0 0 0-6-6Z"/></g></svg>